<svg width="846" height="160" viewBox="0 0 846 160" fill="none" xmlns="http://www.w3.org/2000/svg">
<rect x="0.5" y="0.5" width="845" height="159" rx="23.5" fill="black"/>
<path d="M50.996 28.4H53.796V48H50.996V28.4ZM39.74 48H36.94V28.4H39.74V48ZM51.248 39.264H39.46V36.828H51.248V39.264ZM59.2707 48V33.16H61.9587V48H59.2707ZM60.6147 30.304C60.092 30.304 59.6533 30.136 59.2987 29.8C58.9627 29.464 58.7947 29.0533 58.7947 28.568C58.7947 28.064 58.9627 27.644 59.2987 27.308C59.6533 26.972 60.092 26.804 60.6147 26.804C61.1373 26.804 61.5667 26.972 61.9027 27.308C62.2573 27.6253 62.4347 28.0267 62.4347 28.512C62.4347 29.016 62.2667 29.4453 61.9307 29.8C61.5947 30.136 61.156 30.304 60.6147 30.304ZM66.027 52.144L67.427 46.488L67.791 48.112C67.2496 48.112 66.7923 47.944 66.419 47.608C66.0643 47.272 65.887 46.8147 65.887 46.236C65.887 45.676 66.0643 45.2187 66.419 44.864C66.7923 44.5093 67.2403 44.332 67.763 44.332C68.3043 44.332 68.743 44.5187 69.079 44.892C69.415 45.2467 69.583 45.6947 69.583 46.236C69.583 46.4227 69.5643 46.6093 69.527 46.796C69.5083 46.964 69.4616 47.1693 69.387 47.412C69.331 47.636 69.2376 47.916 69.107 48.252L67.791 52.144H66.027ZM81.3463 48V28.4H84.1463V48H81.3463ZM88.5582 34.868L89.9582 29.184L90.3222 30.808C89.7809 30.808 89.3236 30.64 88.9502 30.304C88.5956 29.968 88.4182 29.52 88.4182 28.96C88.4182 28.3813 88.5956 27.924 88.9502 27.588C89.3236 27.2333 89.7716 27.056 90.2942 27.056C90.8356 27.056 91.2742 27.2427 91.6102 27.616C91.9462 27.9707 92.1142 28.4187 92.1142 28.96C92.1142 29.128 92.1049 29.3053 92.0862 29.492C92.0676 29.66 92.0209 29.856 91.9462 30.08C91.8902 30.304 91.7969 30.5933 91.6662 30.948L90.3222 34.868H88.5582ZM114.53 33.02C115.725 33.02 116.779 33.2533 117.694 33.72C118.609 34.1867 119.318 34.896 119.822 35.848C120.345 36.8 120.606 38.004 120.606 39.46V48H117.918V39.768C117.918 38.3307 117.582 37.248 116.91 36.52C116.238 35.792 115.295 35.428 114.082 35.428C113.186 35.428 112.402 35.6147 111.73 35.988C111.058 36.3613 110.535 36.912 110.162 37.64C109.807 38.368 109.63 39.2733 109.63 40.356V48H106.942V39.768C106.942 38.3307 106.606 37.248 105.934 36.52C105.281 35.792 104.338 35.428 103.106 35.428C102.229 35.428 101.454 35.6147 100.782 35.988C100.11 36.3613 99.5873 36.912 99.214 37.64C98.8406 38.368 98.654 39.2733 98.654 40.356V48H95.966V33.16H98.542V37.108L98.122 36.1C98.5886 35.1293 99.3073 34.3733 100.278 33.832C101.249 33.2907 102.378 33.02 103.666 33.02C105.085 33.02 106.307 33.3747 107.334 34.084C108.361 34.7747 109.033 35.8293 109.35 37.248L108.258 36.8C108.706 35.6613 109.49 34.7467 110.61 34.056C111.73 33.3653 113.037 33.02 114.53 33.02ZM40.176 81.592L40.016 77.688L52.72 64.6H56.368L46.544 74.968L44.752 76.952L40.176 81.592ZM37.36 87V64.6H40.56V87H37.36ZM53.232 87L44.048 76.312L46.192 73.944L56.976 87H53.232ZM70.0338 87V83.416L69.8738 82.744V76.632C69.8738 75.3307 69.4898 74.328 68.7218 73.624C67.9751 72.8987 66.8444 72.536 65.3298 72.536C64.3271 72.536 63.3458 72.7067 62.3858 73.048C61.4258 73.368 60.6151 73.8053 59.9538 74.36L58.6738 72.056C59.5484 71.352 60.5938 70.8187 61.8098 70.456C63.0471 70.072 64.3378 69.88 65.6818 69.88C68.0071 69.88 69.7991 70.4453 71.0578 71.576C72.3164 72.7067 72.9458 74.4347 72.9458 76.76V87H70.0338ZM64.4658 87.192C63.2071 87.192 62.0978 86.9787 61.1378 86.552C60.1991 86.1253 59.4738 85.5387 58.9618 84.792C58.4498 84.024 58.1938 83.16 58.1938 82.2C58.1938 81.2827 58.4071 80.4507 58.8338 79.704C59.2818 78.9573 59.9964 78.36 60.9778 77.912C61.9804 77.464 63.3244 77.24 65.0098 77.24H70.3858V79.448H65.1378C63.6018 79.448 62.5671 79.704 62.0338 80.216C61.5004 80.728 61.2338 81.3467 61.2338 82.072C61.2338 82.904 61.5644 83.576 62.2258 84.088C62.8871 84.5787 63.8044 84.824 64.9778 84.824C66.1298 84.824 67.1324 84.568 67.9858 84.056C68.8604 83.544 69.4898 82.7973 69.8738 81.816L70.4818 83.928C70.0764 84.9307 69.3618 85.7307 68.3378 86.328C67.3138 86.904 66.0231 87.192 64.4658 87.192ZM78.6308 87V70.04H81.5748V74.648L81.2868 73.496C81.7561 72.3227 82.5454 71.4267 83.6548 70.808C84.7641 70.1893 86.1294 69.88 87.7508 69.88V72.856C87.6228 72.8347 87.4948 72.824 87.3668 72.824C87.2601 72.824 87.1534 72.824 87.0468 72.824C85.4041 72.824 84.1028 73.3147 83.1428 74.296C82.1828 75.2773 81.7028 76.696 81.7028 78.552V87H78.6308ZM91.537 87V70.04H94.609V87H91.537ZM93.073 66.776C92.4757 66.776 91.9743 66.584 91.569 66.2C91.185 65.816 90.993 65.3467 90.993 64.792C90.993 64.216 91.185 63.736 91.569 63.352C91.9743 62.968 92.4757 62.776 93.073 62.776C93.6703 62.776 94.161 62.968 94.545 63.352C94.9503 63.7147 95.153 64.1733 95.153 64.728C95.153 65.304 94.961 65.7947 94.577 66.2C94.193 66.584 93.6917 66.776 93.073 66.776ZM109.531 69.88C110.917 69.88 112.133 70.1467 113.179 70.68C114.245 71.2133 115.077 72.024 115.675 73.112C116.272 74.2 116.571 75.576 116.571 77.24V87H113.499V77.592C113.499 75.9493 113.093 74.712 112.283 73.88C111.493 73.048 110.373 72.632 108.923 72.632C107.835 72.632 106.885 72.8453 106.075 73.272C105.264 73.6987 104.635 74.328 104.187 75.16C103.76 75.992 103.547 77.0267 103.547 78.264V87H100.475V70.04H103.419V74.616L102.939 73.4C103.493 72.2907 104.347 71.4267 105.499 70.808C106.651 70.1893 107.995 69.88 109.531 69.88ZM132.784 87V83.416L132.624 82.744V76.632C132.624 75.3307 132.24 74.328 131.472 73.624C130.725 72.8987 129.594 72.536 128.08 72.536C127.077 72.536 126.096 72.7067 125.136 73.048C124.176 73.368 123.365 73.8053 122.704 74.36L121.424 72.056C122.298 71.352 123.344 70.8187 124.56 70.456C125.797 70.072 127.088 69.88 128.432 69.88C130.757 69.88 132.549 70.4453 133.808 71.576C135.066 72.7067 135.696 74.4347 135.696 76.76V87H132.784ZM127.216 87.192C125.957 87.192 124.848 86.9787 123.888 86.552C122.949 86.1253 122.224 85.5387 121.712 84.792C121.2 84.024 120.944 83.16 120.944 82.2C120.944 81.2827 121.157 80.4507 121.584 79.704C122.032 78.9573 122.746 78.36 123.728 77.912C124.73 77.464 126.074 77.24 127.76 77.24H133.136V79.448H127.888C126.352 79.448 125.317 79.704 124.784 80.216C124.25 80.728 123.984 81.3467 123.984 82.072C123.984 82.904 124.314 83.576 124.976 84.088C125.637 84.5787 126.554 84.824 127.728 84.824C128.88 84.824 129.882 84.568 130.736 84.056C131.61 83.544 132.24 82.7973 132.624 81.816L133.232 83.928C132.826 84.9307 132.112 85.7307 131.088 86.328C130.064 86.904 128.773 87.192 127.216 87.192ZM160.535 87.256C158.828 87.256 157.239 86.968 155.767 86.392C154.316 85.816 153.057 85.016 151.991 83.992C150.924 82.9467 150.092 81.7307 149.495 80.344C148.897 78.9573 148.599 77.4427 148.599 75.8C148.599 74.1573 148.897 72.6427 149.495 71.256C150.092 69.8693 150.924 68.664 151.991 67.64C153.057 66.5947 154.316 65.784 155.767 65.208C157.217 64.632 158.807 64.344 160.535 64.344C162.241 64.344 163.809 64.632 165.239 65.208C166.689 65.7627 167.948 66.5627 169.015 67.608C170.103 68.632 170.935 69.8373 171.511 71.224C172.108 72.6107 172.407 74.136 172.407 75.8C172.407 77.464 172.108 78.9893 171.511 80.376C170.935 81.7627 170.103 82.9787 169.015 84.024C167.948 85.048 166.689 85.848 165.239 86.424C163.809 86.9787 162.241 87.256 160.535 87.256ZM160.535 84.408C161.772 84.408 162.913 84.1947 163.958 83.768C165.025 83.3413 165.943 82.744 166.711 81.976C167.5 81.1867 168.108 80.2693 168.535 79.224C168.983 78.1787 169.207 77.0373 169.207 75.8C169.207 74.5627 168.983 73.4213 168.535 72.376C168.108 71.3307 167.5 70.424 166.711 69.656C165.943 68.8667 165.025 68.2587 163.958 67.832C162.913 67.4053 161.772 67.192 160.535 67.192C159.276 67.192 158.113 67.4053 157.047 67.832C156.001 68.2587 155.084 68.8667 154.295 69.656C153.505 70.424 152.887 71.3307 152.439 72.376C152.012 73.4213 151.799 74.5627 151.799 75.8C151.799 77.0373 152.012 78.1787 152.439 79.224C152.887 80.2693 153.505 81.1867 154.295 81.976C155.084 82.744 156.001 83.3413 157.047 83.768C158.113 84.1947 159.276 84.408 160.535 84.408ZM181.714 87.192C180.306 87.192 178.962 87 177.682 86.616C176.423 86.232 175.431 85.7627 174.706 85.208L175.986 82.776C176.711 83.2667 177.607 83.6827 178.674 84.024C179.74 84.3653 180.828 84.536 181.938 84.536C183.367 84.536 184.391 84.3333 185.01 83.928C185.65 83.5227 185.97 82.9573 185.97 82.232C185.97 81.6987 185.778 81.2827 185.394 80.984C185.01 80.6853 184.498 80.4613 183.858 80.312C183.239 80.1627 182.546 80.0347 181.778 79.928C181.01 79.8 180.242 79.6507 179.474 79.48C178.706 79.288 178.002 79.032 177.362 78.712C176.722 78.3707 176.21 77.912 175.826 77.336C175.442 76.7387 175.25 75.9493 175.25 74.968C175.25 73.944 175.538 73.048 176.114 72.28C176.69 71.512 177.5 70.9253 178.546 70.52C179.612 70.0933 180.871 69.88 182.322 69.88C183.431 69.88 184.551 70.0187 185.682 70.296C186.834 70.552 187.772 70.9253 188.498 71.416L187.186 73.848C186.418 73.336 185.618 72.984 184.786 72.792C183.954 72.6 183.122 72.504 182.29 72.504C180.946 72.504 179.943 72.728 179.282 73.176C178.62 73.6027 178.29 74.1573 178.29 74.84C178.29 75.416 178.482 75.864 178.866 76.184C179.271 76.4827 179.783 76.7173 180.402 76.888C181.042 77.0587 181.746 77.208 182.514 77.336C183.282 77.4427 184.05 77.592 184.818 77.784C185.586 77.9547 186.279 78.2 186.898 78.52C187.538 78.84 188.05 79.288 188.434 79.864C188.839 80.44 189.042 81.208 189.042 82.168C189.042 83.192 188.743 84.0773 188.146 84.824C187.548 85.5707 186.706 86.1573 185.618 86.584C184.53 86.9893 183.228 87.192 181.714 87.192ZM200.017 87.192C198.566 87.192 197.286 86.9253 196.177 86.392C195.089 85.8587 194.235 85.048 193.617 83.96C193.019 82.8507 192.721 81.464 192.721 79.8V70.04H195.793V79.448C195.793 81.112 196.187 82.36 196.977 83.192C197.787 84.024 198.918 84.44 200.369 84.44C201.435 84.44 202.363 84.2267 203.153 83.8C203.942 83.352 204.55 82.712 204.977 81.88C205.403 81.0267 205.617 80.0027 205.617 78.808V70.04H208.689V87H205.777V82.424L206.257 83.64C205.702 84.7707 204.87 85.6453 203.761 86.264C202.651 86.8827 201.403 87.192 200.017 87.192ZM217.033 82.904L217.097 78.968L226.857 70.04H230.569L223.081 77.4L221.417 78.808L217.033 82.904ZM214.537 87V63.256H217.609V87H214.537ZM227.497 87L220.841 78.744L222.825 76.28L231.273 87H227.497ZM244.471 87V83.416L244.311 82.744V76.632C244.311 75.3307 243.927 74.328 243.159 73.624C242.413 72.8987 241.282 72.536 239.767 72.536C238.765 72.536 237.783 72.7067 236.823 73.048C235.863 73.368 235.053 73.8053 234.391 74.36L233.111 72.056C233.986 71.352 235.031 70.8187 236.247 70.456C237.485 70.072 238.775 69.88 240.119 69.88C242.445 69.88 244.237 70.4453 245.495 71.576C246.754 72.7067 247.383 74.4347 247.383 76.76V87H244.471ZM238.903 87.192C237.645 87.192 236.535 86.9787 235.575 86.552C234.637 86.1253 233.911 85.5387 233.399 84.792C232.887 84.024 232.631 83.16 232.631 82.2C232.631 81.2827 232.845 80.4507 233.271 79.704C233.719 78.9573 234.434 78.36 235.415 77.912C236.418 77.464 237.762 77.24 239.447 77.24H244.823V79.448H239.575C238.039 79.448 237.005 79.704 236.471 80.216C235.938 80.728 235.671 81.3467 235.671 82.072C235.671 82.904 236.002 83.576 236.663 84.088C237.325 84.5787 238.242 84.824 239.415 84.824C240.567 84.824 241.57 84.568 242.423 84.056C243.298 83.544 243.927 82.7973 244.311 81.816L244.919 83.928C244.514 84.9307 243.799 85.7307 242.775 86.328C241.751 86.904 240.461 87.192 238.903 87.192Z" fill="#DFE0ED"/>
<path d="M37 106H248" stroke="#6E2FBE" stroke-width="2"/>
<path d="M594 59.6807C589.053 59.6809 584.268 61.4413 580.5 64.647C576.732 67.8527 574.228 72.2945 573.436 77.1775C572.643 82.0605 573.614 87.0662 576.175 91.2989C578.735 95.5316 582.718 98.715 587.411 100.28C588.453 100.462 588.844 99.837 588.844 99.29C588.844 98.7952 588.818 97.1546 588.818 95.4098C583.583 96.3733 582.229 94.1338 581.812 92.962C581.35 91.8222 580.617 90.8122 579.677 90.0192C578.948 89.6286 577.906 88.665 579.651 88.639C580.317 88.7113 580.956 88.9432 581.514 89.3149C582.071 89.6866 582.531 90.1872 582.854 90.7744C583.139 91.2863 583.522 91.7369 583.982 92.1004C584.441 92.464 584.968 92.7333 585.531 92.893C586.095 93.0526 586.684 93.0995 587.266 93.0309C587.848 92.9623 588.411 92.7795 588.922 92.4931C589.012 91.434 589.484 90.4438 590.25 89.7068C585.614 89.1859 580.771 87.389 580.771 79.4203C580.741 77.3498 581.505 75.3465 582.906 73.8214C582.269 72.0218 582.344 70.0469 583.114 68.3005C583.114 68.3005 584.859 67.7536 588.844 70.4359C592.253 69.4984 595.851 69.4984 599.26 70.4359C603.245 67.7276 604.989 68.3005 604.989 68.3005C605.76 70.0469 605.835 72.0218 605.198 73.8214C606.603 75.3439 607.367 77.3489 607.333 79.4203C607.333 87.415 602.463 89.1859 597.828 89.7068C598.325 90.2107 598.708 90.8157 598.951 91.4807C599.193 92.1458 599.29 92.8552 599.234 93.5609C599.234 96.3474 599.208 98.5869 599.208 99.2901C599.208 99.837 599.599 100.488 600.64 100.28C605.325 98.7023 609.297 95.5114 611.847 91.2766C614.396 87.0418 615.358 82.0386 614.56 77.1603C613.762 72.282 611.257 67.846 607.49 64.6442C603.724 61.4424 598.943 59.6832 594 59.6807V59.6807Z" fill="#6E2FBE"/>
<path d="M749.656 59.1667L752.994 96.6549L767.978 100.833L783.003 96.6394L786.344 59.1667H749.656ZM779.408 67.7558L778.296 80.2447L778.3 80.3121L778.295 80.4666V80.4651L777.505 89.1971L777.418 89.9729L768 92.5775V92.5788L767.992 92.5854L758.591 89.9649L757.954 82.7457H762.564L762.891 86.4171L768.001 87.8013L768 87.8036L773.128 86.3988L773.67 80.421H762.95L762.858 79.4105L762.647 77.043L762.539 75.7717H774.078L774.498 71.1223H756.921L756.829 70.113L756.62 67.7442L756.51 66.473H779.518L779.408 67.7558Z" fill="#6E2FBE"/>
<path d="M715.162 86.0061C713.596 86.1588 712.018 85.8715 710.606 85.1764C710.286 84.9205 710.022 84.6017 709.83 84.2397C709.638 83.8777 709.522 83.4803 709.49 83.0719C709.489 83.0107 709.477 82.9504 709.453 82.8942C709.428 82.8381 709.393 82.7873 709.349 82.7448C709.306 82.7022 709.254 82.6689 709.197 82.6465C709.14 82.6242 709.079 82.6134 709.018 82.6147C708.358 82.6067 707.699 82.6085 707.04 82.6138C706.924 82.6021 706.809 82.6362 706.719 82.7089C706.629 82.7815 706.571 82.8868 706.558 83.0019C706.52 83.7185 706.641 84.4345 706.912 85.0987C707.183 85.763 707.598 86.3592 708.126 86.8447C709.46 87.8855 711.08 88.4947 712.769 88.591C714.529 88.7951 716.31 88.7195 718.046 88.3669C719.379 88.1182 720.601 87.4595 721.542 86.4827C722.062 85.8414 722.411 85.0785 722.555 84.2656C722.699 83.4526 722.635 82.6163 722.367 81.8353C722.142 81.2846 721.795 80.7928 721.35 80.3976C720.906 80.0023 720.377 79.7141 719.804 79.555C717.136 78.6187 714.253 78.6895 711.533 77.9781C711.061 77.8294 710.484 77.6681 710.273 77.1681C710.152 76.8163 710.143 76.4352 710.25 76.0784C710.356 75.7216 710.571 75.407 710.865 75.179C711.719 74.6909 712.692 74.4487 713.675 74.4794C715.01 74.3538 716.355 74.5462 717.601 75.041C717.975 75.2611 718.297 75.56 718.544 75.9169C718.791 76.2739 718.957 76.6803 719.031 77.1081C719.035 77.2343 719.086 77.3546 719.173 77.4455C719.261 77.5363 719.379 77.5911 719.506 77.599C720.16 77.6124 720.815 77.6026 721.47 77.6035C721.584 77.6171 721.699 77.5892 721.793 77.525C721.888 77.4608 721.956 77.3646 721.986 77.2541C721.991 76.3708 721.766 75.5012 721.333 74.7317C720.899 73.9621 720.272 73.3192 719.513 72.8666C717.42 71.9003 715.096 71.5447 712.809 71.8407V71.8405C711.133 71.9092 709.532 72.5524 708.275 73.6621C707.698 74.2842 707.307 75.0559 707.147 75.8893C706.987 76.7228 707.064 77.5843 707.37 78.376C707.608 78.9063 707.958 79.3786 708.397 79.7605C708.835 80.1424 709.351 80.4247 709.908 80.588C712.568 81.5485 715.483 81.2403 718.168 82.0897C718.691 82.2672 719.3 82.5387 719.461 83.1211C719.547 83.4701 719.54 83.8356 719.442 84.1813C719.343 84.527 719.156 84.8411 718.899 85.0922C717.782 85.786 716.473 86.1061 715.162 86.0061V86.0061ZM727.285 68.4116C722.093 65.4755 716.9 62.542 711.705 59.6112C711.184 59.3198 710.597 59.1667 710 59.1667C709.402 59.1667 708.815 59.3198 708.294 59.6112C703.12 62.5332 697.945 65.455 692.77 68.3766C692.267 68.651 691.846 69.0551 691.551 69.547C691.257 70.0389 691.099 70.6006 691.095 71.1739V88.8286C691.103 89.4124 691.269 89.983 691.575 90.48C691.882 90.977 692.317 91.3818 692.835 91.6515C694.321 92.4606 695.765 93.3521 697.279 94.1074C698.152 94.5744 699.123 94.8317 700.113 94.8589C701.103 94.8861 702.086 94.6825 702.983 94.2642C703.655 93.8434 704.202 93.2501 704.566 92.5461C704.931 91.8422 705.1 91.0533 705.056 90.2618C705.068 84.4354 705.058 78.6087 705.06 72.7821C705.071 72.7184 705.067 72.6533 705.05 72.591C705.034 72.5287 705.004 72.4707 704.963 72.4207C704.922 72.3707 704.871 72.3299 704.814 72.3009C704.756 72.272 704.693 72.2555 704.629 72.2526C703.967 72.242 703.305 72.2464 702.644 72.2509C702.583 72.2454 702.521 72.2529 702.463 72.2729C702.405 72.2929 702.352 72.325 702.307 72.367C702.262 72.4091 702.226 72.4601 702.203 72.5168C702.179 72.5735 702.167 72.6346 702.169 72.696C702.16 78.4851 702.171 84.2758 702.164 90.0658C702.165 90.4654 702.044 90.856 701.818 91.185C701.591 91.5141 701.269 91.766 700.895 91.9069C700.464 92.0342 700.012 92.0692 699.566 92.0096C699.121 91.95 698.694 91.7972 698.312 91.5611C696.935 90.7834 695.558 90.0057 694.18 89.228C694.089 89.1848 694.013 89.1146 693.963 89.027C693.913 88.9393 693.891 88.8384 693.9 88.7379C693.9 82.9131 693.9 77.0886 693.9 71.2644C693.89 71.1511 693.917 71.0377 693.976 70.9403C694.034 70.843 694.122 70.7667 694.227 70.7223C699.384 67.8176 704.541 64.9099 709.696 61.9991C709.786 61.9379 709.892 61.9053 710 61.9055C710.109 61.9056 710.214 61.9386 710.304 62C715.461 64.9056 720.618 67.8122 725.775 70.7199C725.879 70.7654 725.966 70.8424 726.025 70.9401C726.083 71.0377 726.109 71.1511 726.1 71.2645C726.099 77.0882 726.098 82.9124 726.098 88.7371C726.107 88.8381 726.086 88.9395 726.036 89.028C725.987 89.1166 725.912 89.1882 725.821 89.2335C720.743 92.1051 715.662 94.9725 710.578 97.8358C710.335 97.971 710.048 98.1887 709.763 98.0248C708.432 97.2712 707.117 96.4883 705.79 95.7275C705.722 95.6756 705.64 95.6452 705.555 95.64C705.47 95.6349 705.385 95.6554 705.311 95.6988C704.727 96.0412 704.112 96.3283 703.474 96.5563C703.186 96.6728 702.832 96.706 702.634 96.9727C702.887 97.2473 703.192 97.4675 703.533 97.6198C705.085 98.5185 706.637 99.4163 708.191 100.313C708.705 100.636 709.296 100.815 709.902 100.832C710.509 100.849 711.109 100.703 711.64 100.409C716.815 97.4911 721.99 94.5717 727.164 91.6509C727.682 91.3808 728.117 90.9759 728.423 90.4792C728.729 89.9824 728.896 89.4121 728.905 88.8286V71.1739C728.901 70.6119 728.749 70.0609 728.465 69.5761C728.18 69.0913 727.774 68.6897 727.285 68.4116H727.285Z" fill="#6E2FBE"/>
<path d="M650.131 76.7458C649.494 77.1137 648.98 77.6624 648.655 78.3224C648.329 78.9824 648.207 79.7241 648.303 80.4537C648.399 81.1833 648.709 81.868 649.194 82.4213C649.68 82.9745 650.318 83.3715 651.029 83.5619C651.74 83.7524 652.491 83.7278 653.188 83.4912C653.885 83.2546 654.496 82.8167 654.944 82.2329C655.391 81.6491 655.656 80.9455 655.704 80.2112C655.752 79.4769 655.582 78.7448 655.214 78.1075C654.72 77.253 653.908 76.6295 652.955 76.3741C652.001 76.1188 650.986 76.2524 650.131 76.7458V76.7458ZM666.808 80.7826C666.563 80.5034 666.306 80.2235 666.035 79.9429C666.224 79.7437 666.407 79.5448 666.585 79.346C669.93 75.5871 671.342 71.8174 670.034 69.5511C668.779 67.3782 665.047 66.7307 660.375 67.6391C659.915 67.7291 659.458 67.8306 659.003 67.9437C658.915 67.6434 658.823 67.3448 658.725 67.0479C657.14 62.2718 654.579 59.1651 651.963 59.1667C649.453 59.1679 647.028 62.0774 645.481 66.5782C645.329 67.0222 645.188 67.4699 645.059 67.9214C644.755 67.8467 644.449 67.7777 644.142 67.7145C639.213 66.7024 635.243 67.369 633.937 69.6366C632.685 71.8111 633.994 75.3654 637.122 78.9535C637.432 79.3085 637.751 79.6555 638.078 79.9946C637.692 80.3925 637.326 80.7902 636.985 81.1857C633.934 84.7232 632.699 88.2194 633.949 90.3845C635.24 92.6209 639.155 93.3519 643.919 92.4144C644.305 92.3378 644.689 92.2517 645.071 92.156C645.211 92.6443 645.364 93.1283 645.531 93.6081C647.072 98.0187 649.483 100.834 651.983 100.834C654.566 100.832 657.154 97.8067 658.722 93.2111C658.846 92.848 658.964 92.4708 659.075 92.0825C659.568 92.2052 660.064 92.3141 660.564 92.4092C665.154 93.2776 668.798 92.5946 670.046 90.4279C671.335 88.1899 670.006 84.4362 666.808 80.7826H666.808ZM635.48 70.5247C636.283 69.1289 639.528 68.5844 643.784 69.4581C644.056 69.514 644.333 69.5765 644.614 69.6456C644.198 71.4836 643.905 73.3472 643.736 75.2241C642.201 76.3044 640.737 77.483 639.353 78.7524C639.048 78.4372 638.752 78.1143 638.463 77.7839L638.463 77.784C635.784 74.7096 634.725 71.8351 635.48 70.5247ZM643.577 82.4583C642.513 81.6529 641.525 80.8277 640.627 79.9979C641.524 79.1731 642.513 78.3508 643.575 77.5475C643.537 78.3658 643.518 79.1847 643.518 80.0042C643.519 80.8225 643.538 81.6405 643.577 82.4583V82.4583ZM643.576 90.6679C641.77 91.0694 639.906 91.1352 638.076 90.8619C637.575 90.8229 637.086 90.6814 636.642 90.4462C636.197 90.211 635.805 89.8872 635.491 89.4946C634.732 88.1807 635.724 85.3738 638.333 82.3483C638.661 81.9691 639 81.5999 639.35 81.2405C640.733 82.5166 642.2 83.6998 643.739 84.7823C643.911 86.6831 644.207 88.5706 644.627 90.4323C644.279 90.5195 643.928 90.598 643.576 90.6679ZM658.37 73.9192C657.671 73.4789 656.963 73.0528 656.247 72.6408C655.543 72.2352 654.83 71.8449 654.108 71.4698C655.344 70.9504 656.558 70.5067 657.73 70.1452C658.007 71.3916 658.22 72.6513 658.37 73.9192V73.9192ZM647.165 67.1568C648.49 63.3002 650.451 60.9473 651.964 60.9467C653.574 60.9459 655.667 63.4847 657.035 67.6084C657.124 67.8772 657.208 68.1476 657.287 68.4194C655.49 68.977 653.731 69.6529 652.022 70.4427C650.321 69.6436 648.568 68.9602 646.774 68.397C646.894 67.9805 647.024 67.5671 647.165 67.1568ZM646.331 70.123C647.553 70.508 648.756 70.9544 649.934 71.4605C648.475 72.2137 647.053 73.0341 645.669 73.9218C645.836 72.5926 646.058 71.3191 646.331 70.123ZM645.672 86.0827C646.362 86.5246 647.062 86.9501 647.773 87.3593C648.497 87.7765 649.232 88.1762 649.975 88.5584C648.789 89.082 647.576 89.5443 646.341 89.9436C646.066 88.7309 645.841 87.4351 645.672 86.0827ZM657.038 92.6359C656.483 94.4007 655.609 96.0485 654.458 97.4968L654.458 97.497C654.174 97.9118 653.807 98.264 653.382 98.5317C652.956 98.7993 652.48 98.9768 651.982 99.0532C650.465 99.0541 648.529 96.7928 647.212 93.021C647.057 92.5751 646.914 92.1251 646.784 91.671C648.585 91.0897 650.346 90.3869 652.053 89.5675C653.775 90.3624 655.548 91.0434 657.36 91.606C657.261 91.9518 657.153 92.2951 657.038 92.6359ZM657.792 89.8771C656.607 89.5104 655.375 89.0594 654.121 88.5323C654.828 88.1605 655.539 87.7678 656.256 87.3543C656.992 86.9296 657.708 86.4943 658.406 86.0483C658.267 87.3342 658.062 88.6122 657.792 89.8772V89.8771ZM658.722 79.9965C658.724 81.2617 658.684 82.5259 658.604 83.7891C657.577 84.4838 656.494 85.162 655.366 85.8129C654.243 86.4612 653.131 87.0569 652.04 87.596C650.891 87.0457 649.765 86.4527 648.661 85.8169C647.563 85.1849 646.49 84.512 645.443 83.7981C645.347 82.5353 645.299 81.2702 645.298 80.0029L645.298 80.0033C645.298 78.7368 645.345 77.4716 645.44 76.2078C646.466 75.507 647.542 74.8293 648.654 74.1871C649.771 73.5419 650.898 72.9487 652.018 72.4111C653.152 72.9623 654.266 73.5531 655.359 74.1833C656.456 74.8139 657.532 75.4796 658.586 76.1806C658.677 77.4506 658.722 78.7226 658.722 79.9965H658.722ZM660.715 69.3865C664.718 68.6079 667.736 69.1316 668.492 70.4411C669.298 71.8361 668.143 74.9171 665.255 78.1627L665.255 78.1628C665.095 78.3418 664.93 78.5216 664.758 78.7022C663.351 77.43 661.859 76.2552 660.292 75.1858C660.134 73.3295 659.851 71.4858 659.447 69.6672C659.878 69.5612 660.301 69.4676 660.715 69.3865V69.3865ZM660.445 77.4796C661.502 78.2513 662.518 79.0773 663.489 79.9542C662.522 80.8457 661.509 81.6859 660.454 82.4716C660.487 81.6467 660.503 80.8214 660.502 79.9957C660.502 79.1568 660.483 78.3181 660.445 77.4796V77.4796ZM668.503 89.5395C667.746 90.8544 664.82 91.4027 660.895 90.66C660.445 90.5751 659.983 90.474 659.51 90.3567C659.904 88.5147 660.174 86.6481 660.317 84.7697C661.881 83.6817 663.369 82.4873 664.769 81.195C665.014 81.4495 665.247 81.7029 665.468 81.9551V81.955C666.721 83.3165 667.711 84.897 668.391 86.6173C668.609 87.0709 668.731 87.5642 668.75 88.0668C668.769 88.5694 668.685 89.0706 668.503 89.5395V89.5395Z" fill="#6E2FBE"/>
<rect x="0.5" y="0.5" width="845" height="159" rx="23.5" stroke="black"/>
</svg>
